<?xml version="1.0" encoding="UTF-8"?>
<svg id="Layer_2" data-name="Layer 2" xmlns="http://www.w3.org/2000/svg" xmlns:xlink="http://www.w3.org/1999/xlink" viewBox="0 0 1830.3 1070.42">
  <defs>
    <style>
      .cls-1, .cls-2 {
        fill: #fff;
      }

      .cls-3 {
        fill: none;
      }

      .cls-2 {
        font-family: IBMPlexSansArabic-Bold, 'IBM Plex Sans Arabic';
        font-size: 125px;
        font-weight: 700;
      }

      .cls-4 {
        clip-path: url(#clippath);
      }
    </style>
    <clipPath id="clippath">
      <rect class="cls-3" width="1830.3" height="866.03"/>
    </clipPath>
  </defs>
  <g id="Layer_1-2" data-name="Layer 1">
    <g>
      <text class="cls-2" transform="translate(459.7 995.29)"><tspan x="0" y="0" xml:space="preserve">A			 					Company</tspan></text>
      <g>
        <g>
          <path class="cls-1" d="M630.49,906.55h-68.66c-2.26,0-4.08,1.83-4.08,4.08v12.5c0,2.26,1.83,4.08,4.08,4.08h21.78v64c0,2.26,1.83,4.08,4.08,4.08h16.81c2.26,0,4.08-1.83,4.08-4.08v-64h21.91c2.26,0,4.08-1.83,4.08-4.08v-12.5c0-2.26-1.83-4.08-4.08-4.08Z"/>
          <path class="cls-1" d="M713.56,906.55h-68.66c-2.26,0-4.08,1.83-4.08,4.08v12.5c0,2.26,1.83,4.08,4.08,4.08h21.78v64c0,2.26,1.83,4.08,4.08,4.08h16.81c2.26,0,4.08-1.83,4.08-4.08v-64h21.91c2.26,0,4.08-1.83,4.08-4.08v-12.5c0-2.26-1.83-4.08-4.08-4.08Z"/>
        </g>
        <path class="cls-1" d="M760.66,906.55h-31.18c-2.26,0-4.08,1.83-4.08,4.08v80.58c0,2.26,1.83,4.08,4.08,4.08h16.93c2.26,0,4.08-1.83,4.08-4.08v-19.88h10.16c23.71-.25,35.63-14.33,35.63-32.46s-11.79-32.33-35.63-32.33ZM761.42,950.41c-6.93,0-12.54-5.61-12.54-12.54s5.61-12.54,12.54-12.54,12.54,5.61,12.54,12.54-5.61,12.54-12.54,12.54Z"/>
      </g>
    </g>
    <g>
      <path class="cls-1" d="M29.16,29.16h1771.95v807.67H29.16V29.16ZM0,866.03h1830.3V0H0v866.03Z"/>
      <polygon class="cls-1" points="573.41 285.42 601.87 285.42 601.87 127.54 631.48 127.54 631.48 100.86 543.92 100.86 543.92 127.54 573.41 127.54 573.41 285.42"/>
      <polygon class="cls-1" points="674.03 202.85 702.49 202.85 702.49 285.42 730.96 285.42 730.96 100.87 702.49 100.87 702.49 176.17 674.03 176.17 674.03 100.87 645.83 100.87 645.83 285.42 674.03 285.42 674.03 202.85"/>
      <polygon class="cls-1" points="828.08 257.72 782.27 257.72 782.27 202.59 815.29 202.59 815.29 175.92 782.27 175.92 782.27 127.55 828.08 127.55 828.08 100.87 753.8 100.87 753.8 285.42 828.08 285.42 828.08 257.72"/>
      <g class="cls-4">
        <path class="cls-1" d="M483.07,578.95h-40.81v186.19h42.1c15.71,0,27.17-4.12,34.38-12.36,7.2-8.24,10.81-21.42,10.81-39.53v-83.18c0-17.42-3.79-30.31-11.38-38.63-7.6-8.32-19.29-12.49-35.09-12.49M500.2,718.14c0,6.7-1.22,11.63-3.67,14.8-2.45,3.18-6.21,4.77-11.27,4.77h-14.55v-131.33h6.56c7.9,0,13.7,1.78,17.39,5.34,3.69,3.55,5.54,9.16,5.54,16.8v89.62Z"/>
        <polygon class="cls-1" points="550.37 765.14 625.31 765.14 625.31 737.2 579.09 737.2 579.09 681.58 612.39 681.58 612.39 654.66 579.09 654.66 579.09 605.87 625.31 605.87 625.31 578.95 550.37 578.95 550.37 765.14"/>
        <path class="cls-1" d="M685.99,578.95h-42.11v186.19h28.72v-75.72h19.7c11.93,0,21.33-5.03,28.2-15.12,6.86-10.09,10.29-23.92,10.29-41.53,0-18.88-3.53-32.58-10.62-41.08-7.08-8.5-18.47-12.75-34.17-12.75M697.76,656.66c-2.54,4.08-7.15,6.12-13.84,6.12h-11.33v-56.91h10.3c7.12,0,12.01,1.93,14.67,5.8,2.66,3.86,3.99,11.07,3.99,21.63,0,11.5-1.26,19.28-3.8,23.37"/>
        <path class="cls-1" d="M762.77,578.95l-30.64,186.18h28.19l6.18-40.3h28.98l5.8,40.3h29.49l-30.51-186.18h-37.47ZM770.12,698.44l10.3-77.78h1.8l9.79,77.78h-21.89Z"/>
        <path class="cls-1" d="M929.21,661.1c2.83-7.21,4.24-16.66,4.24-28.33,0-18.88-3.51-32.58-10.55-41.08-7.04-8.5-18.45-12.75-34.25-12.75h-42.1v186.18h28.72v-78.28h13.64l17.77,78.28h29.75l-21.12-86.52c6.44-4.46,11.07-10.31,13.91-17.51M900.36,653.96c-2.57,3.99-7.17,5.98-13.77,5.98h-11.33v-54.08h10.3c7.04,0,11.9,1.87,14.62,5.6,2.7,3.73,4.05,10.49,4.05,20.28,0,10.82-1.29,18.22-3.87,22.21"/>
        <polygon class="cls-1" points="943.57 605.86 973.31 605.86 973.31 765.14 1002.03 765.14 1002.03 605.86 1031.9 605.86 1031.9 578.95 943.57 578.95 943.57 605.86"/>
        <path class="cls-1" d="M1108.31,682.35c-.86,5.06-1.53,9.87-2,14.42-.47,4.55-.7,8.97-.7,13.26,0-5.07-.2-9.97-.59-14.68-.38-4.72-.96-9.14-1.73-13.25l-18.67-103.14h-38.25v186.19h26.66v-117.57c0-4.2-.18-9.07-.52-14.62-.34-5.53-.81-11.47-1.42-17.83.18.7.75,3.99,1.74,9.92.98,5.92,1.91,11.38,2.77,16.35l22.41,123.75h14.28l23.45-123.62c.51-2.4,1.45-7.76,2.83-16.09.69-4.38,1.24-7.81,1.67-10.3-.69,6.95-1.22,13.26-1.62,18.93-.38,5.66-.58,10.16-.58,13.51v117.57h26.92v-186.19h-38.77l-17.89,103.39Z"/>
        <polygon class="cls-1" points="1187.86 765.14 1262.8 765.14 1262.8 737.2 1216.58 737.2 1216.58 681.58 1249.88 681.58 1249.88 654.66 1216.58 654.66 1216.58 605.87 1262.8 605.87 1262.8 578.95 1187.86 578.95 1187.86 765.14"/>
        <path class="cls-1" d="M1345.97,684.92c0,2.14.29,5.52.9,10.11.6,4.59,1.37,9.58,2.31,15-1.03-4.04-2.04-7.81-3.02-11.33-.98-3.52-1.82-6.36-2.51-8.51l-36.44-111.25h-25.76v186.18h26.65v-97.34c0-1.97-.27-5.13-.83-9.46-.56-4.34-1.35-9.77-2.38-16.29,1.19,5.15,3,11.25,5.4,18.29.25.85.47,1.5.65,1.93l35.03,102.88h26.91v-186.18h-26.91v105.97Z"/>
        <polygon class="cls-1" points="1387.13 605.86 1416.87 605.86 1416.87 765.14 1445.58 765.14 1445.58 605.86 1475.46 605.86 1475.46 578.95 1387.13 578.95 1387.13 605.86"/>
        <path class="cls-1" d="M121.29,137.49c-10.09,0-18.31-8.21-18.31-18.31s8.21-18.32,18.31-18.32,18.31,8.21,18.31,18.32-8.21,18.31-18.31,18.31"/>
        <path class="cls-1" d="M1723.35,137.47c10.09,0,18.31-8.21,18.31-18.31s-8.21-18.31-18.31-18.31-18.31,8.21-18.31,18.31,8.21,18.31,18.31,18.31"/>
        <path class="cls-1" d="M106.94,731.11c-10.09,0-18.31,8.21-18.31,18.32s8.21,18.3,18.31,18.3,18.31-8.21,18.31-18.3-8.21-18.32-18.31-18.32"/>
        <path class="cls-1" d="M1723.35,728.54c-10.09,0-18.31,8.21-18.31,18.31s8.21,18.3,18.31,18.3,18.31-8.21,18.31-18.3-8.21-18.31-18.31-18.31"/>
        <path class="cls-1" d="M1329.02,322.2c9.56,0,16.97-2.5,22.65-7.63,5.6-5.06,8.32-11.76,8.32-20.49,0-6.95-2.32-12.15-7.09-15.87-4.91-3.86-11.51-5.81-19.6-5.81-9.11,0-16.49,2.52-22.54,7.68-5.91,5.05-8.79,11.15-8.79,18.64s2.15,13.2,6.55,17.29c4.42,4.1,11.32,6.18,20.5,6.18"/>
        <path class="cls-1" d="M1699.28,467.95c-1.19-4.26-5.01-8.57-10.01-8.57-1.78,0-3.6.56-5.4,1.65-9.83,5.95-20.15,12.66-32.48,21.1l-5.48,3,.97-6.72c.95-6.68,3.23-20.41,6.8-41.15,4.82-29.63,7.91-49.38,8.92-57.1.22-1.57.32-3.7.32-6.38,0-2.89-.43-6.65-2.5-8.12-1.36-.97-4.37-2.12-10.95-2.12-1.1,0-2.15.03-3.2.06-.33-.64-.71-1.27-1.18-1.85-3.51-4.34-8.91-6.82-14.03-8.72-2.6-.97-5.05-1.4-7.49-1.57-1.19-.25-2.77-.43-4.83-.43-15.74,0-30.85,5.05-44.91,15.01-14.18,10.02-25.72,23.48-34.27,40.02-8.56,16.54-12.89,34.29-12.89,52.77,0,1.65.14,3.21.28,4.76l.18,2.09-.58,2.06s-2.86,2.76-3.69,3.51c-7.18,6.4-13.37,9.51-18.95,9.51-4.99,0-13.34-2.24-13.34-17.28,0-6.95,2.24-20.6,6.84-41.73,5.19-23.98,7.81-40.72,7.81-49.76,0-13.79-6.44-20.23-20.25-20.23-7.3,0-15.52,2.63-24.41,7.81-9.05,5.27-18.42,14.26-27.88,26.74-5.26,6.93-9.79,14.37-13.83,22.06-2.3,4.37-4.43,8.81-6.45,13.31-1.06,2.38-2.09,4.78-3.08,7.2-.51,1.23-.99,2.49-1.51,3.73-.41,1-.65,2.09-1.27,2.99-.18.25-.38.5-.61.71-.85.81-2.17,1.22-3.25.73-.88-.39-1.45-1.31-1.65-2.26-.24-1.17.05-2.38.15-3.55.11-1.3.26-2.6.4-3.9.26-2.45.56-4.88.89-7.32.56-4.18,1.19-8.37,2.03-12.51,1.45-7.19,3.37-15.56,5.78-25.2,4.35-16.23,5.26-22.53,5.26-24.95,0-2.22-.49-3.66-1.45-4.26-.8-.5-2.97-1.33-8.43-1.33-8.18,0-14.55,1.46-18.91,4.33-4.27,2.82-7.4,7.39-9.33,13.61-8.69,27.41-13.09,56.82-13.09,87.36l.12,5.19-.83.87c-2.86,3.03-5.55,5.78-7.87,7.92-7.08,6.55-13,9.73-18.11,9.73-5.66,0-9.92-2.56-12.31-7.35-2.02-4-3.04-9.48-3.11-17.31.14-1.44.28-2.86.25-4.56l-.12-.86.03-.34c.77-10.28,3.6-26.63,8.41-48.57,4.45-21.38,6.73-35.11,6.73-40.84,0-2.52,0-9.16-15.24-9.16-7.14,0-12.28,1.22-15.29,3.63-3.06,2.45-5.61,7.22-7.59,14.23-4.24,14.35-7.75,30.04-10.46,46.64-2.69,16.6-4.07,30.33-4.07,40.79,0,1.91.14,3.68.25,5.47l.15,2.11-.28,1.77-1.11.97c-1.38,1.21-2.77,2.43-4.06,3.46-8.38,6.59-18.15,9.93-29.03,9.93-13.7,0-23.89-5.54-30.28-16.49-2.45-4.22-4.45-9.79-5.98-16.81-2.88-21.38-3.61-43.23-2.19-64.94l.19-2.79h27.09c37.4,0,37.4-16.32,37.4-21.67,0-4.83-1.03-6.57-1.63-7.17-1.08-1.09-3.18-1.65-6.1-1.65h-53.16l.61-3.49c5.48-31.79,15.46-65.15,30.46-101.99,2.09-5.1,1.84-9.79-.7-13.58-3.03-4.51-9.25-7.43-15.86-7.43-8.43,0-15.3,4.52-18.38,12.1-16.01,39.26-26.43,75.85-31.83,111.85l-.38,2.54h-24.66c-5.63,0-13.1,1.77-13.1,17.03,0,4.9.99,8.42,2.92,10.45,1.3,1.38,4.51,3.02,12.31,3.02h17.12l-.21,3.17c-.7,10.67-1.07,21.3-1.07,31.62,0,7.06.31,13.96.93,21.1l.19,2.09c-3.19-.72-6.31.27-8.82,2.38-.94.63-1.85,1.39-2.73,2.42-10.2,12.38-22.46,22.54-36.44,30.2-14.06,7.7-26.87,11.61-38.06,11.61-17.79,0-30.08-6.04-36.57-17.98l-1.85-3.41,3.76-.92c27.43-6.73,47.1-15.92,58.47-27.26,11.16-11.17,16.82-24.71,16.82-40.23,0-13.16-3.91-23.69-11.62-31.3-7.84-7.71-18.02-11.46-31.14-11.46-14.81,0-28.26,4.03-39.96,11.98-11.78,8.01-21.12,18.98-27.76,32.61-6.68,13.69-10.06,28.69-10.06,44.61,0,7.87.85,15.38,2.54,22.32l.48,1.98-1.66,1.16c-12.82,9.04-24.93,17.54-43.59,17.54-6.2-.05-11.32-2.38-15.23-6.95-11.84-13.76-9.43-44.83-6.93-62.12l.2-1.4,1.22-.73c21.52-12.82,42.7-27.32,62.96-43.07,5.46-4.26,7.39-9.79,5.38-15.58-2.6-7.61-11.24-13.57-19.64-13.57-4.26,0-8.21,1.41-11.79,4.17-19.41,15.11-40.53,29.16-63.15,41.94-1.16.44-2.16,1-3.45,1.92l-2.89,1.61c-3.14,1.77-6.28,3.52-9.49,5.19l-12.78,6.75,1.34-6.27c12.68-59.09,19.87-119.4,21.38-179.28.12-4.95-1.33-9.02-4.32-12.08-3.18-3.26-7.99-5.12-13.19-5.12-8.71,0-18.22,5.43-18.52,17.35-1.69,67.63-11.06,135.81-27.82,202.65l-.41,1.61-1.58.51c-7.74,2.46-15.28,3.97-22.41,4.52l-1.19.09-.92-.74c-3.19-2.6-4.82-6.96-4.82-12.95,0-2.63.96-8.66,2.91-18.38,2.1-11.7,3.17-19.1,3.17-22,0-13.79-6.44-20.23-20.24-20.23-7.3,0-15.52,2.63-24.4,7.81-9.04,5.26-18.42,14.25-27.9,26.74-3.44,4.53-6.55,9.31-9.44,14.21-2.44,3.43-4.72,6.97-6.9,10.6-2.28,3.8-4.47,7.65-6.84,11.39-1.22,1.94-5.87,10.85-8.51,11.17,0-.98.13-1.97.23-2.95.2-1.8.37-3.61.58-5.42.39-3.44.84-6.86,1.37-10.28.39-2.53.83-5.04,1.33-7.55,1.44-7.19,3.35-15.56,5.77-25.2,4.35-16.24,5.26-22.53,5.26-24.95,0-2.22-.5-3.66-1.45-4.26-.8-.5-2.97-1.33-8.44-1.33-8.18,0-14.55,1.46-18.9,4.33-4.33,2.86-7.38,7.3-9.34,13.61-8.68,27.42-13.08,56.83-13.08,87.36l.11,5.11-.84.88c-3.02,3.16-5.82,6.01-8.23,8.19-7.06,6.41-13.09,9.53-18.44,9.53-3.73,0-6.93-1.49-9.26-4.29-2.24-2.69-3.38-6.22-3.38-10.49,0-10.89,2.79-30.33,8.28-57.73,3.51-18.56,5.3-30.41,5.3-35.19,0-4.42-1.64-9.52-14.52-9.52-.23,0-.44.02-.67.03-.33-.64-.7-1.25-1.16-1.82-3.51-4.34-8.91-6.82-14.03-8.72-3.68-1.37-7.07-1.67-10.51-1.65-1.14-.2-2.55-.34-4.37-.34-15.73,0-30.84,5.05-44.9,15.01-14.19,10.02-25.73,23.49-34.28,40.02-8.55,16.53-12.88,34.29-12.88,52.77,0,16.6,4.22,30.15,12.54,40.28,8.29,10.08,19.11,15,33.07,15,17.88,0,32.37-9.37,44.28-28.62l3.27-5.27,2.09,5.83c3.12,8.72,7.81,15.69,13.91,20.67,6.06,4.96,12.52,7.38,19.73,7.38,9.54,0,19.63-4.02,29.99-11.91,1.22-.94,2.43-1.94,3.62-2.93l4.63-3.83,1.38,4.12.63,2.15c3.23,8.33,8.57,12.39,16.33,12.39,6.46,0,11.18-1.65,14.03-4.9,3.11-3.53,5.94-10.73,8.45-21.42,3.59-14.63,8.34-28.73,14.11-41.95,5.79-13.25,11.72-24.08,17.66-32.19,6.59-9.01,11.84-13.2,16.52-13.2,1.63,0,6.92.63,6.92,8.7,0,1.72-.25,5.04-.78,10.24-2.14,10.74-1.22,24.09,6.2,32.77,4.07,4.78,10.04,7.66,16.18,8.97,8.82,1.88,18.48,1.42,27.17-.91l7.16-1.05-1.37,4.49c-5.39,17.78-10.21,32.49-15.18,46.29-1.9,5.28-1.45,10.13,1.29,14.03,3.23,4.6,9.31,7.47,15.85,7.47,8.32,0,14.95-4.62,17.73-12.35,8.33-23.15,15.94-47.27,22.6-71.69l.38-1.39,1.32-.57c7.02-3.01,14.01-6.22,20.97-9.51l4.32-2.04-.06,4.78c-.33,25.96,4.42,59.93,28.96,74.35,10.23,6.02,20.3,8.95,30.82,8.95,21.69,0,41.94-12.73,61.53-25.04l1.86-1.16,1.66,1.43c13.02,11.21,30.89,16.89,53.15,16.89,17.75,0,34.62-4.44,50.18-13.21,15.67-8.83,27.96-18.58,36.54-29.02,1.18-1.38,2.23-3.11,3.28-5.47l3.21-7.22,2.36,7.55c9.98,31.86,30.65,47.37,63.2,47.37,15.06,0,28.57-3.94,40.16-11.67,2.31-1.53,4.56-3.23,6.8-4.93l2.99-1.3,1.72,2.82c6.5,10.14,16.72,15.09,31.26,15.09,11.96,0,24.79-5.41,38.11-16.06l3.32-2.67,1.37,4.04.67,2.3c3.23,8.33,8.58,12.39,16.35,12.39,6.53,0,11.12-1.61,14.01-4.89,3.1-3.55,5.96-10.75,8.46-21.43,3.58-14.63,8.4-28.74,14.29-41.97,5.88-13.22,11.74-24.02,17.42-32.12,6.43-9.16,11.2-13.24,15.49-13.24,1.63,0,6.91.63,6.91,8.7,0,6.01-1.54,16.38-4.7,31.66-3.28,16.88-4.94,28.72-4.94,35.16,0,12.55,2.88,22.16,8.56,28.58,5.57,6.32,14.08,9.54,25.28,9.54,14.31,0,27.27-3.93,38.51-11.64,2.78-1.91,5.52-3.96,8.2-6.13l2.43-1.95,1.84,2.5c.3.4.57.82.82,1.24.21.33.4.67.65.98,8.3,10.08,19.12,15,33.09,15,5.9,0,13.58-1.73,19.67-4.94,6.06-3.18,12.29-6.67,16.03-12.62l2.63.98-2.34,15.11-.94.73c-36.29,28.03-61.33,51.91-74.42,70.96-12.92,18.83-19.48,36.6-19.48,52.82,0,11.42,3.46,20.37,10.56,27.35,7.08,7,16.1,10.4,27.56,10.4,24.31,0,44.11-17.37,58.9-51.62,11.76-27.23,21.82-62.91,29.92-106.05l.22-1.16.93-.69c17.46-12.91,35.34-24.93,53.11-35.74,6.12-3.72,5.3-9.43,4.66-11.71M606.36,447.64c-2.23,10.64-5.9,19.34-10.92,25.87-5.34,6.94-11.19,10.46-17.38,10.46s-11.06-2.17-14.62-6.44c-3.48-4.14-5.17-10.15-5.17-18.35,0-13.68,2.6-26.8,7.73-39.03,5.16-12.29,12.23-22.34,21-29.88,8.95-7.7,18.9-11.74,29.57-11.98l3.73-.09-13.96,69.43ZM1055.26,397.63c6.63-11.17,15-16.83,24.9-16.83,5.15,0,9.32,1.71,12.4,5.08,3.01,3.31,4.52,7.65,4.52,12.91,0,9.7-4.45,18.29-13.23,25.53-.84.7-1.74,1.36-2.64,2.02-10.66,6.32-23.07,8.55-35.39,6.61.45-13.57,3.59-25.46,9.44-35.32M1600.2,554.18c-6.93,31.32-14.29,54.53-21.89,68.99-8.14,15.5-15.61,23.03-22.84,23.03-5.84,0-8.8-2.94-10.26-5.4-1.81-3.07-2.72-6.95-2.72-11.52,0-10.07,4.24-21.79,12.61-34.84,8.23-12.82,21.77-27.35,40.24-43.17l6.78-5.82-1.93,8.73ZM1614.52,442.89c-2.21,12.8-5.99,22.85-11.27,29.88-5.58,7.43-11.68,11.21-18.12,11.21s-11.07-2.17-14.62-6.44c-3.43-4.1-5.16-10.27-5.16-18.35,0-13.69,2.59-26.82,7.73-39.05,5.17-12.28,12.16-22.31,20.8-29.85,8.84-7.7,18.61-11.75,29.04-11.99l3.68-.09-12.1,64.68Z"/>
        <path class="cls-1" d="M457.84,350.5c1.35-2.06,2.73-4.09,4.05-6.17.63-.99,1.12-2.09,1.72-3.08.46-.76.87-1.71,1.62-2.27.42-.32.97-.45,1.5-.49,1.69-.17,3.66.47,3.92,2.39.14,1.09-.26,2.09-.45,3.15-.13.7-.25,1.43-.38,2.13-.56,3.05-1.11,6.11-1.6,9.17-6.92,43.77-17.05,135.33-5.92,168.7,6.45,19.35,16.73,29.57,29.73,29.57s23.99-10.2,25.72-16.95c.84-3.3-.7-4.58-1.94-5.27-17.26-9.46-22.19-50.99-15.09-126.98l.15-1.57c3.66-39.46,11.85-78.89,19.79-117.02,3.76-18.09,7.65-36.79,10.98-55.21,1.15-6.33-.42-12.46-4.42-17.25-3.91-4.68-9.65-7.47-15.37-7.47-6.3,0-11.86,3.39-15.64,9.56l-7.23,11.76c-36.73,59.82-74.71,121.67-116.24,179.78l-3.61,5.08-1.68-6.01c-17.75-63.4-30.33-127.97-40.28-182.76-1.82-10-10.75-13.55-17.84-13.55-8.08,0-17.24,4.24-19.51,13.71-41.98,175.09-88.48,310.26-146.32,425.38-3.23,6.43-3.02,13.2.6,19.06,3.91,6.33,11.2,10.58,18.16,10.58,4.43,0,10.54-1.69,14.58-9.71,2.93-5.81,5.8-11.65,8.63-17.49,2.89-5.95,5.73-11.91,8.53-17.9,2.83-6.05,5.62-12.13,8.36-18.23,2.78-6.16,5.52-12.34,8.21-18.55,2.73-6.27,5.41-12.57,8.07-18.88,2.67-6.39,5.31-12.8,7.91-19.24,2.63-6.52,5.22-13.04,7.76-19.59,2.59-6.64,5.13-13.28,7.64-19.95,2.54-6.76,5.03-13.54,7.49-20.32,2.49-6.89,4.94-13.79,7.35-20.7,2.45-7.01,4.86-14.05,7.22-21.09,2.41-7.15,4.77-14.31,7.09-21.48,2.37-7.28,4.69-14.59,6.97-21.89,2.32-7.42,4.6-14.85,6.85-22.3,2.27-7.56,4.51-15.13,6.73-22.72,2.23-7.7,4.43-15.41,6.61-23.14.86-3.08,1.72-6.17,2.57-9.26.42-1.53.84-3.06,1.26-4.59.35-1.28.54-2.81,1.64-3.69.92-.74,2.32-.79,3.36-.21,1.54.89,1.69,2.61,2.04,4.18.44,2.02.88,4.04,1.33,6.07.88,3.97,1.78,7.95,2.68,11.92,1.76,7.7,3.57,15.41,5.45,23.08,1.8,7.38,3.65,14.75,5.57,22.1,1.85,7.08,3.75,14.14,5.72,21.18,1.9,6.79,3.85,13.58,5.87,20.33,1.95,6.54,3.96,13.06,6.04,19.56.38,1.18.75,2.36,1.15,3.53,2.79,8.62,9.43,13.77,17.76,13.77,6.76,0,13.48-3.49,17.96-9.32,3.87-5.02,7.68-10.09,11.47-15.17,3.93-5.29,7.81-10.58,11.67-15.92,3.99-5.53,7.94-11.08,11.85-16.67,4.08-5.81,8.13-11.65,12.13-17.52,4.2-6.13,8.35-12.29,12.47-18.47,4.33-6.49,8.61-13,12.87-19.54,2.22-3.41,4.49-6.78,6.73-10.19"/>
      </g>
    </g>
  </g>
</svg>